<svg id="Layer_8" data-name="Layer 8" xmlns="http://www.w3.org/2000/svg" viewBox="0 0 77.43 16.55"><defs><style>.cls-1{fill:#005ba0;}.cls-2{fill:#fff;}</style></defs><title>cta</title><rect class="cls-1" width="77.43" height="16.55" rx="8.28" ry="8.28"/><path class="cls-2" d="M54.74,69a1.88,1.88,0,0,1-.29,1,1.94,1.94,0,0,1-.86.7,3.08,3.08,0,0,1-1.3.25,6.06,6.06,0,0,1-1-.08,3.88,3.88,0,0,1-.88-.31V69.05a4.59,4.59,0,0,0,1,.39,3.77,3.77,0,0,0,1,.14.93.93,0,0,0,.56-.13.42.42,0,0,0,.17-.33.35.35,0,0,0-.07-.23.77.77,0,0,0-.23-.19,8.8,8.8,0,0,0-.83-.41,3.71,3.71,0,0,1-.92-.54,1.69,1.69,0,0,1-.45-.59,2,2,0,0,1-.15-.8A1.6,1.6,0,0,1,51,65a2.8,2.8,0,0,1,1.73-.48,4.82,4.82,0,0,1,2,.45l-.52,1.3a3.7,3.7,0,0,0-1.51-.4.85.85,0,0,0-.48.11.36.36,0,0,0-.15.29.41.41,0,0,0,.19.33,7.51,7.51,0,0,0,1,.53,2.84,2.84,0,0,1,1.13.78A1.7,1.7,0,0,1,54.74,69Z" transform="translate(-42.75 -59.44)"/><path class="cls-2" d="M62.46,70.87h-2l-.6-2.73c0-.11-.07-.34-.13-.68s-.11-.62-.14-.85c0,.19-.06.42-.11.69s-.1.53-.15.76l-.62,2.81h-2l-1.55-6.25h1.63l.68,3.13c.16.69.26,1.25.32,1.66,0-.29.1-.69.2-1.19s.18-.91.27-1.24l.55-2.36h1.56L60.91,67c.09.38.18.82.28,1.31s.15.87.18,1.12c0-.32.14-.87.31-1.65l.69-3.14H64Z" transform="translate(-42.75 -59.44)"/><path class="cls-2" d="M64.81,70.87V64.62h1.7v6.25Z" transform="translate(-42.75 -59.44)"/><path class="cls-2" d="M70.61,70.87H68.93V66H67.4V64.62h4.74V66H70.61Z" transform="translate(-42.75 -59.44)"/><path class="cls-2" d="M75.81,65.91a1.09,1.09,0,0,0-.94.5,2.42,2.42,0,0,0-.33,1.36c0,1.2.45,1.8,1.37,1.8a3,3,0,0,0,.8-.11c.26-.08.52-.17.79-.28v1.43a4.4,4.4,0,0,1-1.77.34,2.78,2.78,0,0,1-2.17-.82,3.36,3.36,0,0,1-.76-2.37,3.71,3.71,0,0,1,.37-1.71,2.61,2.61,0,0,1,1-1.13,3.2,3.2,0,0,1,1.61-.39,4.37,4.37,0,0,1,1.94.44l-.52,1.33a6.65,6.65,0,0,0-.69-.28A2.56,2.56,0,0,0,75.81,65.91Z" transform="translate(-42.75 -59.44)"/><path class="cls-2" d="M84.07,70.87H82.38V68.32h-2v2.55h-1.7V64.62h1.7v2.31h2V64.62h1.69Z" transform="translate(-42.75 -59.44)"/><path class="cls-2" d="M93.65,70.87H91.44l-2.29-4.41h0c0,.7.08,1.22.08,1.59v2.82H87.7V64.62h2.21L92.18,69h0c0-.63-.06-1.13-.06-1.52V64.62h1.5Z" transform="translate(-42.75 -59.44)"/><path class="cls-2" d="M100.85,67.73a3.35,3.35,0,0,1-.77,2.4,3.52,3.52,0,0,1-4.52,0,4,4,0,0,1,0-4.79,3.55,3.55,0,0,1,4.53,0A3.36,3.36,0,0,1,100.85,67.73Zm-4.3,0c0,1.21.42,1.82,1.26,1.82a1.11,1.11,0,0,0,1-.44,2.49,2.49,0,0,0,.31-1.38,2.42,2.42,0,0,0-.32-1.38,1.07,1.07,0,0,0-.94-.45C97,65.9,96.55,66.51,96.55,67.73Z" transform="translate(-42.75 -59.44)"/><path class="cls-2" d="M108.74,70.87h-2l-.6-2.73c0-.11-.07-.34-.14-.68s-.1-.62-.13-.85c0,.19-.06.42-.11.69s-.1.53-.15.76-.26,1.17-.63,2.81h-2l-1.55-6.25h1.63l.68,3.13c.15.69.26,1.25.32,1.66,0-.29.1-.69.19-1.19s.19-.91.27-1.24l.55-2.36h1.57l.53,2.36c.09.38.19.82.28,1.31s.16.87.19,1.12q.06-.48.3-1.65l.7-3.14h1.62Z" transform="translate(-42.75 -59.44)"/><path class="cls-2" d="M110.78,70.16a.77.77,0,0,1,.23-.61,1,1,0,0,1,.68-.21.92.92,0,0,1,.65.21.8.8,0,0,1,.22.61.75.75,0,0,1-.23.6.93.93,0,0,1-.64.21,1,1,0,0,1-.67-.21A.75.75,0,0,1,110.78,70.16Z" transform="translate(-42.75 -59.44)"/></svg>