<svg id="LOGO" xmlns="http://www.w3.org/2000/svg" viewBox="0 0 159.78 57.33"><defs><style>.cls-1{fill:#005ba0;}.cls-2{fill:#04865a;}</style></defs><title>LOGO</title><path d="M70.11,28.07h4.47v.7h-.31a2.19,2.19,0,0,0-.76.1.61.61,0,0,0-.32.35,2.55,2.55,0,0,0-.08.78v3.23h6V30.08a4.71,4.71,0,0,0,0-.77.61.61,0,0,0-.29-.4,1.31,1.31,0,0,0-.67-.14h-.45v-.7H82.1v.7h-.4a1.48,1.48,0,0,0-.66.11.56.56,0,0,0-.27.28,2.15,2.15,0,0,0-.08.77v7.89a2.75,2.75,0,0,0,.08.84.51.51,0,0,0,.33.25,5.58,5.58,0,0,0,1,.05v.7H77.67V39H78a2.82,2.82,0,0,0,.82-.08.43.43,0,0,0,.26-.27,4.29,4.29,0,0,0,.05-.88v-3.6h-6v3.69a2.36,2.36,0,0,0,.09.84.48.48,0,0,0,.34.25,6.29,6.29,0,0,0,1,.05v.7H70.11V39h.28a2.63,2.63,0,0,0,.81-.07.57.57,0,0,0,.26-.27,1.92,1.92,0,0,0,.09-.71v-8a2.49,2.49,0,0,0-.08-.75.61.61,0,0,0-.28-.31,1.49,1.49,0,0,0-.62-.1h-.46Z" transform="translate(-70.11 -6.33)"/><path d="M87.71,31.45a4.21,4.21,0,0,1,2.12.5,3.58,3.58,0,0,1,1.4,1.48,5,5,0,0,1,0,4.44,3.71,3.71,0,0,1-1.43,1.48,4.39,4.39,0,0,1-2.18.51,3.61,3.61,0,0,1-3-1.26,4.84,4.84,0,0,1-.49-5.14A3.7,3.7,0,0,1,85.58,32,4.28,4.28,0,0,1,87.71,31.45Zm-.06.8A2.07,2.07,0,0,0,86,33a4,4,0,0,0-.83,2.71,4.11,4.11,0,0,0,.71,2.6,2.11,2.11,0,0,0,1.74.8,2.14,2.14,0,0,0,1.25-.37,2.63,2.63,0,0,0,.9-1.19,5.16,5.16,0,0,0,.34-1.93,4.92,4.92,0,0,0-.37-1.93,2.25,2.25,0,0,0-.85-1.06A2.29,2.29,0,0,0,87.65,32.25Z" transform="translate(-70.11 -6.33)"/><path d="M93,28.86v-.69a5,5,0,0,0,2.2-.69h.62V37.7a2.51,2.51,0,0,0,.08.81.67.67,0,0,0,.32.34A1.8,1.8,0,0,0,97,39h.27v.7H93V39h.44a1.24,1.24,0,0,0,.61-.12.79.79,0,0,0,.29-.34,3.06,3.06,0,0,0,.08-.86V28.86Z" transform="translate(-70.11 -6.33)"/><path d="M103.09,31.65h.58l.74,2.54-.74.25a3.79,3.79,0,0,0-1.26-1.61,2.8,2.8,0,0,0-1.64-.59,1.69,1.69,0,0,0-1,.31.9.9,0,0,0-.4.72.88.88,0,0,0,.29.66,3.86,3.86,0,0,0,1.27.64l1.62.57a4.66,4.66,0,0,1,1.87,1,1.87,1.87,0,0,1,.49,1.28,2.11,2.11,0,0,1-.36,1.16,2.62,2.62,0,0,1-1.06.9,3.71,3.71,0,0,1-1.59.33,3.75,3.75,0,0,1-2.4-.8l-.17.6H98.7l-1-2.72.75-.3a6.17,6.17,0,0,0,1.43,1.7,3.31,3.31,0,0,0,2,.7,1.79,1.79,0,0,0,1.19-.38,1.13,1.13,0,0,0,.47-.86,1.09,1.09,0,0,0-.29-.72,3.11,3.11,0,0,0-1.15-.61l-1.92-.7a4.32,4.32,0,0,1-1.72-1A1.76,1.76,0,0,1,98,33.57a1.88,1.88,0,0,1,.78-1.48,3.06,3.06,0,0,1,2-.64,3.59,3.59,0,0,1,1.13.16,3.49,3.49,0,0,1,1,.53Z" transform="translate(-70.11 -6.33)"/><path d="M108.16,28.82h.59v2.83h2.47v.83h-2.47v5a2.84,2.84,0,0,0,.11.92,1,1,0,0,0,.38.44,1.07,1.07,0,0,0,.61.18,3.05,3.05,0,0,0,1.74-.71v.81a3.93,3.93,0,0,1-2.21.74,2.4,2.4,0,0,1-1.14-.28,1.63,1.63,0,0,1-.7-.67,3.38,3.38,0,0,1-.19-1.33v-5.1H105.9v-.7a3,3,0,0,0,1.13-.49,2.43,2.43,0,0,0,.7-.87A5.83,5.83,0,0,0,108.16,28.82Z" transform="translate(-70.11 -6.33)"/><path d="M116.62,31.45a4.21,4.21,0,0,1,2.12.5,3.58,3.58,0,0,1,1.4,1.48,5,5,0,0,1,0,4.44,3.67,3.67,0,0,1-1.44,1.48,4.35,4.35,0,0,1-2.17.51,3.65,3.65,0,0,1-3-1.26,4.8,4.8,0,0,1-.48-5.14A3.74,3.74,0,0,1,114.48,32,4.32,4.32,0,0,1,116.62,31.45Zm-.06.8A2.06,2.06,0,0,0,115,33a4,4,0,0,0-.83,2.71,4.11,4.11,0,0,0,.71,2.6,2.1,2.1,0,0,0,1.73.8,2.19,2.19,0,0,0,1.26-.37,2.55,2.55,0,0,0,.89-1.19,5.35,5.35,0,0,0,0-3.86,2.25,2.25,0,0,0-.85-1.06A2.29,2.29,0,0,0,116.56,32.25Z" transform="translate(-70.11 -6.33)"/><path d="M122.3,32.83v-.69a5.76,5.76,0,0,0,1.11-.2,6.2,6.2,0,0,0,1-.49h.6V33a8,8,0,0,1,1.87-1.25,4.16,4.16,0,0,1,1.57-.32,3,3,0,0,1,1.2.22,2.37,2.37,0,0,1,.85.62,2,2,0,0,1,.44.89,5.36,5.36,0,0,1,.06.93v3.66a2.36,2.36,0,0,0,.1.84.57.57,0,0,0,.3.27,4,4,0,0,0,1,.08v.7h-4.26V39h.23a1.87,1.87,0,0,0,.81-.11.59.59,0,0,0,.31-.31,2.24,2.24,0,0,0,.1-.85V34.63a3.92,3.92,0,0,0-.15-1.31,1.31,1.31,0,0,0-.53-.59,1.73,1.73,0,0,0-.93-.23,3.67,3.67,0,0,0-1.44.34,5.46,5.46,0,0,0-1.48,1v3.83a2.54,2.54,0,0,0,.1.86.63.63,0,0,0,.31.33,2.39,2.39,0,0,0,.8.08h.24v.7h-4.29V39h.21a2.35,2.35,0,0,0,.85-.1.58.58,0,0,0,.31-.37,4,4,0,0,0,0-.92V32.83Z" transform="translate(-70.11 -6.33)"/><path d="M145,28.07h.6l1,3.87-.77.21a13,13,0,0,0-1-1.79,3.89,3.89,0,0,0-1.32-1.17,3.6,3.6,0,0,0-1.75-.43,3.79,3.79,0,0,0-2.07.6,4.4,4.4,0,0,0-1.52,1.76,5.77,5.77,0,0,0-.59,2.62,5.89,5.89,0,0,0,.59,2.67,4.49,4.49,0,0,0,1.61,1.8,4.06,4.06,0,0,0,2.18.63,4.69,4.69,0,0,0,2.26-.63,6.11,6.11,0,0,0,2-1.77l.67.45a6.83,6.83,0,0,1-1.11,1.3,6.56,6.56,0,0,1-2,1.26,6,6,0,0,1-2.24.41,5.49,5.49,0,0,1-4.39-2,6,6,0,0,1-1.39-4,6,6,0,0,1,.77-3,5.76,5.76,0,0,1,2.13-2.17,5.6,5.6,0,0,1,2.93-.81,5.14,5.14,0,0,1,1.55.23,5.74,5.74,0,0,1,1.46.74Z" transform="translate(-70.11 -6.33)"/><path d="M152.33,31.45a4.21,4.21,0,0,1,2.12.5,3.66,3.66,0,0,1,1.41,1.48,4.72,4.72,0,0,1,.51,2.22,4.61,4.61,0,0,1-.53,2.22,3.71,3.71,0,0,1-1.43,1.48,4.39,4.39,0,0,1-2.18.51,3.61,3.61,0,0,1-3-1.26,4.84,4.84,0,0,1-.49-5.14A3.7,3.7,0,0,1,150.2,32,4.28,4.28,0,0,1,152.33,31.45Zm-.06.8a2.07,2.07,0,0,0-1.61.75,4,4,0,0,0-.83,2.71,4.11,4.11,0,0,0,.71,2.6,2.29,2.29,0,0,0,3,.43,2.63,2.63,0,0,0,.9-1.19,5.16,5.16,0,0,0,.34-1.93,4.75,4.75,0,0,0-.37-1.93,2.25,2.25,0,0,0-.85-1.06A2.29,2.29,0,0,0,152.27,32.25Z" transform="translate(-70.11 -6.33)"/><path d="M158,32.83v-.69a5.61,5.61,0,0,0,1.11-.2,6.2,6.2,0,0,0,1-.49h.6V33a8,8,0,0,1,1.87-1.25,4.16,4.16,0,0,1,1.57-.32,3,3,0,0,1,1.21.22,2.33,2.33,0,0,1,.84.62,2,2,0,0,1,.44.89,5.16,5.16,0,0,1,.07.93v3.66a2.44,2.44,0,0,0,.09.84.63.63,0,0,0,.31.27,3.85,3.85,0,0,0,1,.08v.7h-4.27V39h.23a1.87,1.87,0,0,0,.81-.11.64.64,0,0,0,.32-.31,2.55,2.55,0,0,0,.09-.85V34.63a3.92,3.92,0,0,0-.15-1.31,1.25,1.25,0,0,0-.53-.59,1.73,1.73,0,0,0-.93-.23,3.67,3.67,0,0,0-1.44.34,5.27,5.27,0,0,0-1.47,1v3.83a2.63,2.63,0,0,0,.09.86.63.63,0,0,0,.31.33,2.39,2.39,0,0,0,.8.08h.24v.7H158V39h.2a2.31,2.31,0,0,0,.85-.1.63.63,0,0,0,.32-.37,4.68,4.68,0,0,0,.05-.92V32.83Z" transform="translate(-70.11 -6.33)"/><path d="M169.58,32.83v-.69a5.76,5.76,0,0,0,1.11-.2,6.2,6.2,0,0,0,1.05-.49h.6V33a8,8,0,0,1,1.87-1.25,4.16,4.16,0,0,1,1.57-.32,3,3,0,0,1,1.2.22,2.37,2.37,0,0,1,.85.62,2,2,0,0,1,.44.89,5.36,5.36,0,0,1,.06.93v3.66a2.36,2.36,0,0,0,.1.84.57.57,0,0,0,.3.27,4,4,0,0,0,1,.08v.7h-4.26V39h.23a1.87,1.87,0,0,0,.81-.11.59.59,0,0,0,.31-.31,2.24,2.24,0,0,0,.1-.85V34.63a3.92,3.92,0,0,0-.15-1.31,1.31,1.31,0,0,0-.53-.59,1.76,1.76,0,0,0-.93-.23,3.67,3.67,0,0,0-1.44.34,5.46,5.46,0,0,0-1.48,1v3.83a2.3,2.3,0,0,0,.1.86.63.63,0,0,0,.31.33,2.39,2.39,0,0,0,.8.08h.24v.7h-4.29V39h.21a2.35,2.35,0,0,0,.85-.1.58.58,0,0,0,.31-.37,4,4,0,0,0,.05-.92V32.83Z" transform="translate(-70.11 -6.33)"/><path d="M187.91,37.52l.53.43a7.26,7.26,0,0,1-1.17,1.14,3.94,3.94,0,0,1-1.08.6,3.83,3.83,0,0,1-1.19.17,4.07,4.07,0,0,1-2.07-.5,4,4,0,0,1-1.51-1.49,4.34,4.34,0,0,1-.52-2.18,4.58,4.58,0,0,1,.51-2.24A3.76,3.76,0,0,1,182.82,32a4.06,4.06,0,0,1,2.11-.53,4,4,0,0,1,1.54.27,3,3,0,0,1,1.12.84,3.62,3.62,0,0,1,.66,1.28,4.51,4.51,0,0,1,.13,1.09h-5.87c0,.28,0,.48,0,.61a4.62,4.62,0,0,0,.36,1.87,2.73,2.73,0,0,0,1,1.21,2.54,2.54,0,0,0,1.37.38,2.77,2.77,0,0,0,1.25-.3A6.34,6.34,0,0,0,187.91,37.52Zm-1.06-3.36a3.18,3.18,0,0,0-.36-1.13,1.57,1.57,0,0,0-.64-.58,2.11,2.11,0,0,0-.95-.22,2.34,2.34,0,0,0-1,.22,2.11,2.11,0,0,0-.76.6,3.38,3.38,0,0,0-.52,1.11Z" transform="translate(-70.11 -6.33)"/><path d="M197,37.34l.53.43a4.59,4.59,0,0,1-3.75,2.09,3.87,3.87,0,0,1-2.87-1.21,4.19,4.19,0,0,1-1.17-3,4.33,4.33,0,0,1,.54-2.16A3.8,3.8,0,0,1,191.78,32a4.5,4.5,0,0,1,2.22-.53,3.91,3.91,0,0,1,2.39.7,1.9,1.9,0,0,1,1,1.41.76.76,0,0,1-.22.59.73.73,0,0,1-.51.21.62.62,0,0,1-.29-.07A1,1,0,0,1,196,34a2.59,2.59,0,0,1-.24-.46,4.56,4.56,0,0,0-.35-.65,1.81,1.81,0,0,0-1.48-.71,2.33,2.33,0,0,0-1.3.39,2.62,2.62,0,0,0-1,1.15,4.21,4.21,0,0,0-.35,1.81,3.73,3.73,0,0,0,.87,2.6A2.32,2.32,0,0,0,194,39a3.09,3.09,0,0,0,1-.16,3.43,3.43,0,0,0,.93-.48A7.89,7.89,0,0,0,197,37.34Z" transform="translate(-70.11 -6.33)"/><path d="M200.68,28.82h.59v2.83h2.47v.83h-2.47v5a2.84,2.84,0,0,0,.11.92,1,1,0,0,0,.39.44,1.06,1.06,0,0,0,.6.18,3.05,3.05,0,0,0,1.74-.71v.81a3.92,3.92,0,0,1-2.2.74,2.42,2.42,0,0,1-1.15-.28,1.63,1.63,0,0,1-.7-.67,3.43,3.43,0,0,1-.18-1.33v-5.1h-1.46v-.7a2.88,2.88,0,0,0,1.13-.49,2.43,2.43,0,0,0,.7-.87A5.49,5.49,0,0,0,200.68,28.82Z" transform="translate(-70.11 -6.33)"/><polygon class="cls-1" points="133.48 2.37 131.12 19.96 128.75 2.37 133.48 2.37"/><circle cx="131.12" cy="2.37" r="2.37"/><polygon class="cls-1" points="128.75 54.97 131.12 37.37 133.48 54.97 128.75 54.97"/><circle cx="131.12" cy="54.97" r="2.37"/><polygon class="cls-1" points="120.02 4.71 126.76 21.13 115.92 7.07 120.02 4.71"/><circle cx="117.97" cy="5.89" r="2.37"/><polygon class="cls-1" points="142.22 52.63 135.47 36.21 146.32 50.26 142.22 52.63"/><circle cx="144.27" cy="51.44" r="2.37"/><polygon class="cls-1" points="152.71 43.87 138.66 33.02 155.08 39.77 152.71 43.87"/><circle cx="153.89" cy="41.82" r="2.37"/><polygon class="cls-1" points="157.42 31.03 139.82 28.67 157.42 26.3 157.42 31.03"/><circle cx="157.42" cy="28.67" r="2.37"/><polygon class="cls-1" points="155.08 17.57 138.66 24.31 152.71 13.47 155.08 17.57"/><circle cx="153.89" cy="15.52" r="2.37"/><polygon class="cls-1" points="115.92 50.26 126.76 36.21 120.02 52.63 115.92 50.26"/><circle cx="117.97" cy="51.44" r="2.37"/><polygon class="cls-1" points="146.32 7.07 135.47 21.13 142.22 4.71 146.32 7.07"/><circle cx="144.27" cy="5.89" r="2.37"/><polygon class="cls-2" points="127.27 6.55 129.2 21.52 123.39 7.59 127.27 6.55"/><circle cx="125.33" cy="7.07" r="2.01"/><polygon class="cls-2" points="134.96 50.78 133.03 35.82 138.84 49.74 134.96 50.78"/><circle cx="136.9" cy="50.26" r="2.01"/><polygon class="cls-2" points="116.73 11.44 125.88 23.43 113.89 14.28 116.73 11.44"/><circle cx="115.31" cy="12.86" r="2.01"/><polygon class="cls-2" points="145.5 45.9 136.35 33.9 148.35 43.05 145.5 45.9"/><circle cx="146.93" cy="44.47" r="2.01"/><polygon class="cls-2" points="152.19 36.4 138.27 30.58 153.23 32.51 152.19 36.4"/><circle cx="152.71" cy="34.45" r="2.01"/><polygon class="cls-2" points="153.23 24.82 138.27 26.75 152.19 20.94 153.23 24.82"/><circle cx="152.71" cy="22.88" r="2.01"/><polygon class="cls-2" points="113.89 43.05 125.88 33.9 116.73 45.9 113.89 43.05"/><circle cx="115.31" cy="44.47" r="2.01"/><polygon class="cls-2" points="148.35 14.28 136.35 23.43 145.5 11.44 148.35 14.28"/><circle cx="146.93" cy="12.86" r="2.01"/><polygon class="cls-2" points="123.39 49.74 129.2 35.82 127.27 50.78 123.39 49.74"/><circle cx="125.33" cy="50.26" r="2.01"/><polygon class="cls-2" points="138.84 7.59 133.03 21.52 134.96 6.55 138.84 7.59"/><circle cx="136.9" cy="7.07" r="2.01"/></svg>