<svg id="Layer_8" data-name="Layer 8" xmlns="http://www.w3.org/2000/svg" viewBox="0 0 300 20.67"><defs><style>.cls-1{fill:#005ba0;}.cls-2{fill:#fff;}</style></defs><title>cta</title><path class="cls-1" d="M10.33,0H289.67A10.33,10.33,0,0,1,300,10.33V20.67a0,0,0,0,1,0,0H0a0,0,0,0,1,0,0V10.33A10.33,10.33,0,0,1,10.33,0Z"/><path class="cls-2" d="M112.34,242.57a2.64,2.64,0,0,1-.42,1.48,2.78,2.78,0,0,1-1.21,1,4.47,4.47,0,0,1-1.86.36,7.79,7.79,0,0,1-1.49-.12,5.75,5.75,0,0,1-1.26-.44V242.7a8.27,8.27,0,0,0,1.43.55,5.42,5.42,0,0,0,1.37.19,1.34,1.34,0,0,0,.78-.18.57.57,0,0,0,.25-.48.51.51,0,0,0-.1-.32,1.15,1.15,0,0,0-.32-.28c-.15-.09-.54-.28-1.19-.57a5.41,5.41,0,0,1-1.3-.77,2.31,2.31,0,0,1-.65-.85,2.83,2.83,0,0,1-.21-1.14,2.28,2.28,0,0,1,.9-1.92,3.93,3.93,0,0,1,2.46-.69,7,7,0,0,1,2.82.64l-.74,1.86a5.34,5.34,0,0,0-2.15-.57,1.15,1.15,0,0,0-.69.16.51.51,0,0,0-.21.41.59.59,0,0,0,.27.47,10.36,10.36,0,0,0,1.47.76,4,4,0,0,1,1.6,1.11A2.38,2.38,0,0,1,112.34,242.57Z" transform="translate(0 -230.37)"/><path class="cls-2" d="M123.34,245.28h-2.85l-.85-3.88c0-.16-.11-.49-.19-1s-.16-.89-.2-1.21c0,.26-.08.59-.15,1s-.15.75-.22,1.08-.37,1.66-.89,4h-2.84l-2.21-8.91h2.32l1,4.47c.22,1,.37,1.77.45,2.35.06-.41.15-1,.29-1.68s.26-1.3.38-1.77l.78-3.37h2.23l.76,3.37c.13.54.27,1.16.4,1.87s.22,1.24.27,1.58c0-.45.2-1.23.43-2.34l1-4.48h2.32Z" transform="translate(0 -230.37)"/><path class="cls-2" d="M126.68,245.28v-8.91h2.42v8.91Z" transform="translate(0 -230.37)"/><path class="cls-2" d="M135,245.28h-2.4v-6.94h-2.18v-2h6.75v2H135Z" transform="translate(0 -230.37)"/><path class="cls-2" d="M142.36,238.22a1.53,1.53,0,0,0-1.34.7,3.42,3.42,0,0,0-.48,1.94c0,1.72.65,2.57,2,2.57a4,4,0,0,0,1.14-.16,10.79,10.79,0,0,0,1.12-.4v2a6.21,6.21,0,0,1-2.53.49,4,4,0,0,1-3.09-1.17,4.86,4.86,0,0,1-1.07-3.38,5.36,5.36,0,0,1,.52-2.43,3.71,3.71,0,0,1,1.5-1.61,4.48,4.48,0,0,1,2.3-.57,6.33,6.33,0,0,1,2.76.63l-.74,1.9a6.77,6.77,0,0,0-1-.39A3.32,3.32,0,0,0,142.36,238.22Z" transform="translate(0 -230.37)"/><path class="cls-2" d="M154.13,245.28h-2.42v-3.63h-2.8v3.63h-2.42v-8.91h2.42v3.3h2.8v-3.3h2.42Z" transform="translate(0 -230.37)"/><path class="cls-2" d="M167.77,245.28h-3.15L161.36,239h-.05c.08,1,.11,1.74.11,2.26v4h-2.13v-8.91h3.15l3.24,6.19h0c-.05-.9-.08-1.62-.08-2.16v-4h2.14Z" transform="translate(0 -230.37)"/><path class="cls-2" d="M178,240.81a4.79,4.79,0,0,1-1.1,3.42,5,5,0,0,1-6.44,0,5.77,5.77,0,0,1,0-6.82,5.06,5.06,0,0,1,6.46,0A4.83,4.83,0,0,1,178,240.81Zm-6.13,0c0,1.73.6,2.59,1.8,2.59a1.56,1.56,0,0,0,1.36-.63,4.56,4.56,0,0,0,0-3.93,1.53,1.53,0,0,0-1.34-.63C172.51,238.21,171.9,239.07,171.9,240.81Z" transform="translate(0 -230.37)"/><path class="cls-2" d="M189.26,245.28h-2.84l-.86-3.88c0-.16-.1-.49-.19-1s-.15-.89-.19-1.21c0,.26-.09.59-.16,1s-.14.75-.22,1.08-.36,1.66-.88,4h-2.85l-2.2-8.91h2.32l1,4.47c.22,1,.37,1.77.45,2.35,0-.41.15-1,.28-1.68s.26-1.3.38-1.77l.79-3.37h2.23l.76,3.37c.13.54.26,1.16.4,1.87s.22,1.24.26,1.58c.06-.45.2-1.23.44-2.34l1-4.48h2.32Z" transform="translate(0 -230.37)"/><path class="cls-2" d="M192.17,244.27a1.13,1.13,0,0,1,.33-.87,1.38,1.38,0,0,1,1-.3,1.3,1.3,0,0,1,.93.3,1.13,1.13,0,0,1,.32.87,1.1,1.1,0,0,1-.33.85,1.27,1.27,0,0,1-.92.31,1.42,1.42,0,0,1-1-.3A1.09,1.09,0,0,1,192.17,244.27Z" transform="translate(0 -230.37)"/></svg>