<svg id="Layer_8" data-name="Layer 8" xmlns="http://www.w3.org/2000/svg" viewBox="0 0 160 36.67"><defs><style>.cls-1{fill:#005ba0;}.cls-2{fill:#fff;}</style></defs><title>cta</title><path class="cls-1" d="M17.83,0H142.17A17.83,17.83,0,0,1,160,17.83V36.67a0,0,0,0,1,0,0H0a0,0,0,0,1,0,0V17.83A17.83,17.83,0,0,1,17.83,0Z"/><path class="cls-2" d="M32.37,586.44a3.34,3.34,0,0,1-.53,1.85,3.55,3.55,0,0,1-1.53,1.26A5.7,5.7,0,0,1,28,590a9.92,9.92,0,0,1-1.88-.15,7.35,7.35,0,0,1-1.59-.55v-2.71a9.28,9.28,0,0,0,1.81.7,7.07,7.07,0,0,0,1.72.25,1.67,1.67,0,0,0,1-.24.72.72,0,0,0,.31-.6.65.65,0,0,0-.13-.41,1.6,1.6,0,0,0-.4-.35c-.19-.11-.69-.36-1.5-.72a7,7,0,0,1-1.65-1,3,3,0,0,1-.81-1.07,3.56,3.56,0,0,1-.27-1.44,2.88,2.88,0,0,1,1.13-2.42,5,5,0,0,1,3.11-.87,8.85,8.85,0,0,1,3.56.8l-.93,2.35a6.77,6.77,0,0,0-2.72-.72,1.51,1.51,0,0,0-.87.2.65.65,0,0,0-.26.52.73.73,0,0,0,.34.59,13,13,0,0,0,1.85,1,5,5,0,0,1,2,1.4A3,3,0,0,1,32.37,586.44Z" transform="translate(0 -563.33)"/><path class="cls-2" d="M46.25,589.85h-3.6L41.58,585c0-.2-.13-.61-.24-1.22s-.19-1.12-.25-1.53c0,.33-.1.75-.2,1.24s-.18.95-.27,1.37-.46,2.09-1.12,5H35.91l-2.78-11.24h2.93l1.22,5.64q.42,1.86.57,3,.1-.78.36-2.13c.17-.9.33-1.64.48-2.23l1-4.25h2.81l1,4.25c.17.68.34,1.47.5,2.36s.29,1.56.34,2c.07-.57.25-1.55.55-3l1.24-5.65H49Z" transform="translate(0 -563.33)"/><path class="cls-2" d="M50.47,589.85V578.61h3.05v11.24Z" transform="translate(0 -563.33)"/><path class="cls-2" d="M60.91,589.85h-3v-8.76H55.13v-2.48h8.51v2.48H60.91Z" transform="translate(0 -563.33)"/><path class="cls-2" d="M70.26,580.94a1.93,1.93,0,0,0-1.7.89,4.33,4.33,0,0,0-.6,2.45c0,2.16.82,3.24,2.47,3.24a5,5,0,0,0,1.44-.21,13.2,13.2,0,0,0,1.41-.5v2.57a7.71,7.71,0,0,1-3.18.62,5.07,5.07,0,0,1-3.91-1.47,6.13,6.13,0,0,1-1.35-4.27,6.93,6.93,0,0,1,.65-3.07,4.7,4.7,0,0,1,1.89-2,5.68,5.68,0,0,1,2.91-.71,8,8,0,0,1,3.48.79l-.93,2.39a10.77,10.77,0,0,0-1.25-.49A4.12,4.12,0,0,0,70.26,580.94Z" transform="translate(0 -563.33)"/><path class="cls-2" d="M85.1,589.85h-3v-4.58H78.52v4.58h-3V578.61h3v4.17h3.53v-4.17h3Z" transform="translate(0 -563.33)"/><path class="cls-2" d="M102.33,589.85h-4l-4.1-7.92h-.07c.1,1.25.14,2.2.14,2.85v5.07H91.62V578.61h4l4.09,7.81h0c-.08-1.13-.11-2-.11-2.73v-5.08h2.71Z" transform="translate(0 -563.33)"/><path class="cls-2" d="M115.27,584.21a6.07,6.07,0,0,1-1.39,4.32,6.34,6.34,0,0,1-8.13,0,7.3,7.3,0,0,1,0-8.61,5.4,5.4,0,0,1,4.08-1.48,5.32,5.32,0,0,1,4.07,1.47A6.08,6.08,0,0,1,115.27,584.21Zm-7.73,0c0,2.18.75,3.26,2.27,3.26a1.94,1.94,0,0,0,1.71-.79,4.36,4.36,0,0,0,.55-2.47,4.31,4.31,0,0,0-.56-2.48,1.93,1.93,0,0,0-1.69-.81C108.3,580.92,107.54,582,107.54,584.21Z" transform="translate(0 -563.33)"/><path class="cls-2" d="M129.44,589.85h-3.59l-1.08-4.9c0-.2-.13-.61-.24-1.22s-.19-1.12-.24-1.53c0,.33-.11.75-.2,1.24s-.18.95-.27,1.37-.46,2.09-1.12,5h-3.59l-2.78-11.24h2.92l1.23,5.64q.4,1.86.57,3c.06-.52.18-1.23.35-2.13s.34-1.64.48-2.23l1-4.25h2.81l1,4.25c.16.68.33,1.47.5,2.36s.28,1.56.34,2c.07-.57.25-1.55.55-3l1.24-5.65h2.93Z" transform="translate(0 -563.33)"/><path class="cls-2" d="M133.11,588.57a1.41,1.41,0,0,1,.42-1.09,1.76,1.76,0,0,1,1.22-.38,1.7,1.7,0,0,1,1.17.38,1.43,1.43,0,0,1,.4,1.09,1.4,1.4,0,0,1-.42,1.08,1.6,1.6,0,0,1-1.15.39,1.78,1.78,0,0,1-1.2-.38A1.39,1.39,0,0,1,133.11,588.57Z" transform="translate(0 -563.33)"/></svg>